{
	"asset":{
		"generator":"Khronos glTF Blender I/O v5.1.19",
		"version":"2.0"
	},
	"scene":0,
	"scenes":[
		{
			"name":"Scene",
			"nodes":[
				0,
				6,
				7,
				8
			]
		}
	],
	"nodes":[
		{
			"name":"Flags"
		},
		{
			"name":"Tower"
		},
		{
			"name":"Tower2",
			"translation":[
				0,
				0,
				-3.125
			]
		},
		{
			"name":"Tower3",
			"translation":[
				-3.125,
				0,
				0
			]
		},
		{
			"mesh":0,
			"name":"mesh.006"
		},
		{
			"children":[
				4
			],
			"name":"Tower4",
			"translation":[
				-3.125,
				0,
				-3.125
			]
		},
		{
			"children":[
				1,
				2,
				3,
				5
			],
			"name":"Towers"
		},
		{
			"name":"walls",
			"rotation":[
				0,
				-0.7071068286895752,
				0,
				0.7071067094802856
			],
			"translation":[
				-1.5625,
				1.0091911554336548,
				-1.5625
			]
		},
		{
			"name":"mainbuilding",
			"translation":[
				4.628704071044922,
				0,
				1.8111224174499512
			]
		}
	],
	"materials":[
		{
			"alphaCutoff":0.05000000074505806,
			"alphaMode":"MASK",
			"doubleSided":true,
			"name":"Material_0",
			"pbrMetallicRoughness":{
				"baseColorTexture":{
					"index":0
				},
				"metallicFactor":0
			}
		}
	],
	"meshes":[
		{
			"name":"Mesh_9",
			"primitives":[
				{
					"attributes":{
						"POSITION":0,
						"NORMAL":1,
						"TEXCOORD_0":2
					},
					"indices":3,
					"material":0
				}
			]
		}
	],
	"textures":[
		{
			"sampler":0,
			"source":0
		}
	],
	"images":[
		{
			"mimeType":"image/png",
			"name":"Image_0",
			"uri":"Image_0.png"
		}
	],
	"accessors":[
		{
			"bufferView":0,
			"componentType":5126,
			"count":6268,
			"max":[
				3.625,
				2.5,
				3.625
			],
			"min":[
				-0.5,
				-7.078051567077637e-08,
				-0.5
			],
			"type":"VEC3"
		},
		{
			"bufferView":1,
			"componentType":5126,
			"count":6268,
			"type":"VEC3"
		},
		{
			"bufferView":2,
			"componentType":5126,
			"count":6268,
			"type":"VEC2"
		},
		{
			"bufferView":3,
			"componentType":5123,
			"count":9390,
			"type":"SCALAR"
		}
	],
	"bufferViews":[
		{
			"buffer":0,
			"byteLength":75216,
			"byteOffset":0,
			"target":34962
		},
		{
			"buffer":0,
			"byteLength":75216,
			"byteOffset":75216,
			"target":34962
		},
		{
			"buffer":0,
			"byteLength":50144,
			"byteOffset":150432,
			"target":34962
		},
		{
			"buffer":0,
			"byteLength":18780,
			"byteOffset":200576,
			"target":34963
		}
	],
	"samplers":[
		{
			"magFilter":9728,
			"minFilter":9984,
			"wrapS":33071,
			"wrapT":33071
		}
	],
	"buffers":[
		{
			"byteLength":219356,
			"uri":"Castle.bin"
		}
	]
}
