{
	"asset":{
		"generator":"Khronos glTF Blender I/O v5.1.19",
		"version":"2.0"
	},
	"scene":0,
	"scenes":[
		{
			"name":"Scene",
			"nodes":[
				0
			]
		}
	],
	"nodes":[
		{
			"mesh":0,
			"name":"Staff_3",
			"scale":[
				0.3464033901691437,
				0.3896675109863281,
				0.3464033901691437
			]
		}
	],
	"materials":[
		{
			"doubleSided":true,
			"name":"\u30de\u30c6\u30ea\u30a2\u30eb",
			"pbrMetallicRoughness":{
				"baseColorFactor":[
					0.8000074625015259,
					0.15232449769973755,
					0.001580720767378807,
					1
				],
				"metallicFactor":0,
				"roughnessFactor":0.5
			}
		},
		{
			"doubleSided":true,
			"name":"\u30de\u30c6\u30ea\u30a2\u30eb.001",
			"pbrMetallicRoughness":{
				"baseColorFactor":[
					0.00493654515594244,
					0.33662402629852295,
					0.8000156879425049,
					1
				],
				"metallicFactor":0,
				"roughnessFactor":0.5
			}
		},
		{
			"doubleSided":true,
			"name":"\u30de\u30c6\u30ea\u30a2\u30eb.002",
			"pbrMetallicRoughness":{
				"baseColorFactor":[
					0.8000229597091675,
					0.35409465432167053,
					0.025080382823944092,
					1
				],
				"metallicFactor":0,
				"roughnessFactor":0.5
			}
		}
	],
	"meshes":[
		{
			"name":"Cube.004",
			"primitives":[
				{
					"attributes":{
						"POSITION":0,
						"NORMAL":1
					},
					"indices":2,
					"material":0
				},
				{
					"attributes":{
						"POSITION":3,
						"NORMAL":4
					},
					"indices":5,
					"material":1
				},
				{
					"attributes":{
						"POSITION":6,
						"NORMAL":7
					},
					"indices":8,
					"material":2
				}
			]
		}
	],
	"accessors":[
		{
			"bufferView":0,
			"componentType":5126,
			"count":132,
			"max":[
				0.11816069483757019,
				4.602066516876221,
				0.17699174582958221
			],
			"min":[
				-0.08578358590602875,
				0.3669614791870117,
				-0.09136441349983215
			],
			"type":"VEC3"
		},
		{
			"bufferView":1,
			"componentType":5126,
			"count":132,
			"type":"VEC3"
		},
		{
			"bufferView":2,
			"componentType":5123,
			"count":198,
			"type":"SCALAR"
		},
		{
			"bufferView":3,
			"componentType":5126,
			"count":100,
			"max":[
				0.2571020722389221,
				5.902060508728027,
				0.2442445605993271
			],
			"min":[
				-0.29890334606170654,
				5.039666175842285,
				-0.2828550636768341
			],
			"type":"VEC3"
		},
		{
			"bufferView":4,
			"componentType":5126,
			"count":100,
			"type":"VEC3"
		},
		{
			"bufferView":5,
			"componentType":5123,
			"count":108,
			"type":"SCALAR"
		},
		{
			"bufferView":6,
			"componentType":5126,
			"count":420,
			"max":[
				0.24494780600070953,
				4.9718241691589355,
				0.2394774705171585
			],
			"min":[
				-0.23623895645141602,
				0.004150390625,
				-0.24123917520046234
			],
			"type":"VEC3"
		},
		{
			"bufferView":7,
			"componentType":5126,
			"count":420,
			"type":"VEC3"
		},
		{
			"bufferView":8,
			"componentType":5123,
			"count":618,
			"type":"SCALAR"
		}
	],
	"bufferViews":[
		{
			"buffer":0,
			"byteLength":1584,
			"byteOffset":0,
			"target":34962
		},
		{
			"buffer":0,
			"byteLength":1584,
			"byteOffset":1584,
			"target":34962
		},
		{
			"buffer":0,
			"byteLength":396,
			"byteOffset":3168,
			"target":34963
		},
		{
			"buffer":0,
			"byteLength":1200,
			"byteOffset":3564,
			"target":34962
		},
		{
			"buffer":0,
			"byteLength":1200,
			"byteOffset":4764,
			"target":34962
		},
		{
			"buffer":0,
			"byteLength":216,
			"byteOffset":5964,
			"target":34963
		},
		{
			"buffer":0,
			"byteLength":5040,
			"byteOffset":6180,
			"target":34962
		},
		{
			"buffer":0,
			"byteLength":5040,
			"byteOffset":11220,
			"target":34962
		},
		{
			"buffer":0,
			"byteLength":1236,
			"byteOffset":16260,
			"target":34963
		}
	],
	"buffers":[
		{
			"byteLength":17496,
			"uri":"IceStaff.bin"
		}
	]
}
