{
	"asset":{
		"generator":"Khronos glTF Blender I/O v5.1.19",
		"version":"2.0"
	},
	"extensionsUsed":[
		"KHR_materials_specular"
	],
	"scene":0,
	"scenes":[
		{
			"name":"Scene",
			"nodes":[
				0,
				1,
				2,
				3,
				4,
				5,
				6,
				7,
				8,
				9,
				10,
				11,
				12,
				13
			]
		}
	],
	"nodes":[
		{
			"mesh":0,
			"name":"Cape",
			"rotation":[
				0.7071068286895752,
				0,
				0,
				0.7071068286895752
			]
		},
		{
			"mesh":1,
			"name":"Collar",
			"rotation":[
				0.7071068286895752,
				0,
				0,
				0.7071068286895752
			]
		},
		{
			"mesh":2,
			"name":"Forearm",
			"rotation":[
				0.7071068286895752,
				0,
				0,
				0.7071068286895752
			]
		},
		{
			"mesh":3,
			"name":"Forearm.001",
			"rotation":[
				0.7071068286895752,
				0,
				0,
				0.7071068286895752
			]
		},
		{
			"mesh":4,
			"name":"Hair",
			"rotation":[
				0.7071068286895752,
				0,
				0,
				0.7071068286895752
			]
		},
		{
			"mesh":5,
			"name":"Hair.001",
			"rotation":[
				0.7071068286895752,
				0,
				0,
				0.7071068286895752
			]
		},
		{
			"mesh":6,
			"name":"Hand",
			"rotation":[
				0.7071068286895752,
				0,
				0,
				0.7071068286895752
			]
		},
		{
			"mesh":7,
			"name":"Hand.001",
			"rotation":[
				0.7071068286895752,
				0,
				0,
				0.7071068286895752
			]
		},
		{
			"mesh":8,
			"name":"Hat",
			"rotation":[
				0.7071068286895752,
				0,
				0,
				0.7071068286895752
			]
		},
		{
			"mesh":9,
			"name":"Head",
			"rotation":[
				0.7071068286895752,
				0,
				0,
				0.7071068286895752
			]
		},
		{
			"mesh":10,
			"name":"Inner Body",
			"rotation":[
				0.7071068286895752,
				0,
				0,
				0.7071068286895752
			]
		},
		{
			"mesh":11,
			"name":"Outter Body",
			"rotation":[
				0.7071068286895752,
				0,
				0,
				0.7071068286895752
			]
		},
		{
			"mesh":12,
			"name":"UpperArm",
			"rotation":[
				0.7071068286895752,
				0,
				0,
				0.7071068286895752
			]
		},
		{
			"mesh":13,
			"name":"UpperArm.001",
			"rotation":[
				0.7071068286895752,
				0,
				0,
				0.7071068286895752
			]
		}
	],
	"materials":[
		{
			"doubleSided":true,
			"extensions":{
				"KHR_materials_specular":{
					"specularFactor":0
				}
			},
			"name":"m_b79db0ea-b243-3966-aa7c-203bc764a3c5",
			"pbrMetallicRoughness":{
				"baseColorTexture":{
					"index":0
				},
				"metallicFactor":0
			}
		}
	],
	"meshes":[
		{
			"name":"Cape",
			"primitives":[
				{
					"attributes":{
						"POSITION":0,
						"NORMAL":1,
						"TEXCOORD_0":2
					},
					"indices":3,
					"material":0
				}
			]
		},
		{
			"name":"Collar",
			"primitives":[
				{
					"attributes":{
						"POSITION":4,
						"NORMAL":5,
						"TEXCOORD_0":6
					},
					"indices":7,
					"material":0
				}
			]
		},
		{
			"name":"Forearm",
			"primitives":[
				{
					"attributes":{
						"POSITION":8,
						"NORMAL":9,
						"TEXCOORD_0":10
					},
					"indices":11,
					"material":0
				}
			]
		},
		{
			"name":"Forearm.001",
			"primitives":[
				{
					"attributes":{
						"POSITION":12,
						"NORMAL":13,
						"TEXCOORD_0":14
					},
					"indices":15,
					"material":0
				}
			]
		},
		{
			"name":"Hair",
			"primitives":[
				{
					"attributes":{
						"POSITION":16,
						"NORMAL":17,
						"TEXCOORD_0":18
					},
					"indices":19,
					"material":0
				}
			]
		},
		{
			"name":"Hair.001",
			"primitives":[
				{
					"attributes":{
						"POSITION":20,
						"NORMAL":21,
						"TEXCOORD_0":22
					},
					"indices":23,
					"material":0
				}
			]
		},
		{
			"name":"Hand",
			"primitives":[
				{
					"attributes":{
						"POSITION":24,
						"NORMAL":25,
						"TEXCOORD_0":26
					},
					"indices":27,
					"material":0
				}
			]
		},
		{
			"name":"Hand.001",
			"primitives":[
				{
					"attributes":{
						"POSITION":28,
						"NORMAL":29,
						"TEXCOORD_0":30
					},
					"indices":31,
					"material":0
				}
			]
		},
		{
			"name":"Hat",
			"primitives":[
				{
					"attributes":{
						"POSITION":32,
						"NORMAL":33,
						"TEXCOORD_0":34
					},
					"indices":35,
					"material":0
				}
			]
		},
		{
			"name":"Head",
			"primitives":[
				{
					"attributes":{
						"POSITION":36,
						"NORMAL":37,
						"TEXCOORD_0":38
					},
					"indices":39,
					"material":0
				}
			]
		},
		{
			"name":"Inner Body",
			"primitives":[
				{
					"attributes":{
						"POSITION":40,
						"NORMAL":41,
						"TEXCOORD_0":42
					},
					"indices":43,
					"material":0
				}
			]
		},
		{
			"name":"Outter Body",
			"primitives":[
				{
					"attributes":{
						"POSITION":44,
						"NORMAL":45,
						"TEXCOORD_0":46
					},
					"indices":47,
					"material":0
				}
			]
		},
		{
			"name":"UpperArm",
			"primitives":[
				{
					"attributes":{
						"POSITION":48,
						"NORMAL":49,
						"TEXCOORD_0":50
					},
					"indices":51,
					"material":0
				}
			]
		},
		{
			"name":"UpperArm.001",
			"primitives":[
				{
					"attributes":{
						"POSITION":52,
						"NORMAL":53,
						"TEXCOORD_0":54
					},
					"indices":55,
					"material":0
				}
			]
		}
	],
	"textures":[
		{
			"sampler":0,
			"source":0
		}
	],
	"images":[
		{
			"mimeType":"image/png",
			"name":"Tiny_Witch_Texture",
			"uri":"Tiny_Witch_Texture.png"
		}
	],
	"accessors":[
		{
			"bufferView":0,
			"componentType":5126,
			"count":16,
			"max":[
				0.25,
				0.36932137608528137,
				-0.507749080657959
			],
			"min":[
				-0.25,
				0.18110233545303345,
				-0.8770519495010376
			],
			"type":"VEC3"
		},
		{
			"bufferView":1,
			"componentType":5126,
			"count":16,
			"type":"VEC3"
		},
		{
			"bufferView":2,
			"componentType":5126,
			"count":16,
			"type":"VEC2"
		},
		{
			"bufferView":3,
			"componentType":5123,
			"count":24,
			"type":"SCALAR"
		},
		{
			"bufferView":4,
			"componentType":5126,
			"count":16,
			"max":[
				0.3369963467121124,
				0.37132352590560913,
				-0.875
			],
			"min":[
				-0.3369963467121124,
				-0.19411765038967133,
				-0.981249988079071
			],
			"type":"VEC3"
		},
		{
			"bufferView":5,
			"componentType":5126,
			"count":16,
			"type":"VEC3"
		},
		{
			"bufferView":6,
			"componentType":5126,
			"count":16,
			"type":"VEC2"
		},
		{
			"bufferView":7,
			"componentType":5123,
			"count":24,
			"type":"SCALAR"
		},
		{
			"bufferView":8,
			"componentType":5126,
			"count":24,
			"max":[
				-0.23833689093589783,
				0.1767766922712326,
				-0.1806102693080902
			],
			"min":[
				-0.6388229727745056,
				-0.1767766922712326,
				-0.5613285899162292
			],
			"type":"VEC3"
		},
		{
			"bufferView":9,
			"componentType":5126,
			"count":24,
			"type":"VEC3"
		},
		{
			"bufferView":10,
			"componentType":5126,
			"count":24,
			"type":"VEC2"
		},
		{
			"bufferView":11,
			"componentType":5123,
			"count":36,
			"type":"SCALAR"
		},
		{
			"bufferView":12,
			"componentType":5126,
			"count":24,
			"max":[
				0.6388229727745056,
				0.1767766922712326,
				-0.1806102693080902
			],
			"min":[
				0.23833689093589783,
				-0.1767766922712326,
				-0.5613285899162292
			],
			"type":"VEC3"
		},
		{
			"bufferView":13,
			"componentType":5126,
			"count":24,
			"type":"VEC3"
		},
		{
			"bufferView":14,
			"componentType":5126,
			"count":24,
			"type":"VEC2"
		},
		{
			"bufferView":15,
			"componentType":5123,
			"count":36,
			"type":"SCALAR"
		},
		{
			"bufferView":16,
			"componentType":5126,
			"count":72,
			"max":[
				0.4000000059604645,
				0.375,
				-0.8145833611488342
			],
			"min":[
				-0.4000000059604645,
				-0.38749998807907104,
				-1.625
			],
			"type":"VEC3"
		},
		{
			"bufferView":17,
			"componentType":5126,
			"count":72,
			"type":"VEC3"
		},
		{
			"bufferView":18,
			"componentType":5126,
			"count":72,
			"type":"VEC2"
		},
		{
			"bufferView":19,
			"componentType":5123,
			"count":108,
			"type":"SCALAR"
		},
		{
			"bufferView":20,
			"componentType":5126,
			"count":72,
			"max":[
				0.4375,
				0.4375,
				-0.7083333134651184
			],
			"min":[
				-0.4375,
				-0.44999998807907104,
				-1.6437499523162842
			],
			"type":"VEC3"
		},
		{
			"bufferView":21,
			"componentType":5126,
			"count":72,
			"type":"VEC3"
		},
		{
			"bufferView":22,
			"componentType":5126,
			"count":72,
			"type":"VEC2"
		},
		{
			"bufferView":23,
			"componentType":5123,
			"count":108,
			"type":"SCALAR"
		},
		{
			"bufferView":24,
			"componentType":5126,
			"count":32,
			"max":[
				-0.31820422410964966,
				0.1767766922712326,
				-0.06474445015192032
			],
			"min":[
				-0.6724042296409607,
				-0.1767766922712326,
				-0.4475036859512329
			],
			"type":"VEC3"
		},
		{
			"bufferView":25,
			"componentType":5126,
			"count":32,
			"type":"VEC3"
		},
		{
			"bufferView":26,
			"componentType":5126,
			"count":32,
			"type":"VEC2"
		},
		{
			"bufferView":27,
			"componentType":5123,
			"count":42,
			"type":"SCALAR"
		},
		{
			"bufferView":28,
			"componentType":5126,
			"count":32,
			"max":[
				0.6724042296409607,
				0.1767766922712326,
				-0.06474445015192032
			],
			"min":[
				0.31820422410964966,
				-0.1767766922712326,
				-0.4475036859512329
			],
			"type":"VEC3"
		},
		{
			"bufferView":29,
			"componentType":5126,
			"count":32,
			"type":"VEC3"
		},
		{
			"bufferView":30,
			"componentType":5126,
			"count":32,
			"type":"VEC2"
		},
		{
			"bufferView":31,
			"componentType":5123,
			"count":42,
			"type":"SCALAR"
		},
		{
			"bufferView":32,
			"componentType":5126,
			"count":95,
			"max":[
				0.8989865779876709,
				1.0810269117355347,
				-0.8785039186477661
			],
			"min":[
				-0.9242449402809143,
				-0.8511443734169006,
				-2.16290283203125
			],
			"type":"VEC3"
		},
		{
			"bufferView":33,
			"componentType":5126,
			"count":95,
			"type":"VEC3"
		},
		{
			"bufferView":34,
			"componentType":5126,
			"count":95,
			"type":"VEC2"
		},
		{
			"bufferView":35,
			"componentType":5123,
			"count":135,
			"type":"SCALAR"
		},
		{
			"bufferView":36,
			"componentType":5126,
			"count":96,
			"max":[
				0.375,
				0.33125001192092896,
				-0.875
			],
			"min":[
				-0.375,
				-0.35624998807907104,
				-1.6124999523162842
			],
			"type":"VEC3"
		},
		{
			"bufferView":37,
			"componentType":5126,
			"count":96,
			"type":"VEC3"
		},
		{
			"bufferView":38,
			"componentType":5126,
			"count":96,
			"type":"VEC2"
		},
		{
			"bufferView":39,
			"componentType":5123,
			"count":144,
			"type":"SCALAR"
		},
		{
			"bufferView":40,
			"componentType":5126,
			"count":145,
			"max":[
				0.3125,
				0.5,
				0
			],
			"min":[
				-0.3125,
				-0.1875,
				-0.875
			],
			"type":"VEC3"
		},
		{
			"bufferView":41,
			"componentType":5126,
			"count":145,
			"type":"VEC3"
		},
		{
			"bufferView":42,
			"componentType":5126,
			"count":145,
			"type":"VEC2"
		},
		{
			"bufferView":43,
			"componentType":5123,
			"count":228,
			"type":"SCALAR"
		},
		{
			"bufferView":44,
			"componentType":5126,
			"count":146,
			"max":[
				0.375,
				0.6875,
				0
			],
			"min":[
				-0.375,
				-0.25,
				-0.875
			],
			"type":"VEC3"
		},
		{
			"bufferView":45,
			"componentType":5126,
			"count":146,
			"type":"VEC3"
		},
		{
			"bufferView":46,
			"componentType":5126,
			"count":146,
			"type":"VEC2"
		},
		{
			"bufferView":47,
			"componentType":5123,
			"count":228,
			"type":"SCALAR"
		},
		{
			"bufferView":48,
			"componentType":5126,
			"count":40,
			"max":[
				-0.1248813048005104,
				0.13258293271064758,
				-0.4152009189128876
			],
			"min":[
				-0.4672270119190216,
				-0.13258293271064758,
				-0.7898924946784973
			],
			"type":"VEC3"
		},
		{
			"bufferView":49,
			"componentType":5126,
			"count":40,
			"type":"VEC3"
		},
		{
			"bufferView":50,
			"componentType":5126,
			"count":40,
			"type":"VEC2"
		},
		{
			"bufferView":51,
			"componentType":5123,
			"count":60,
			"type":"SCALAR"
		},
		{
			"bufferView":52,
			"componentType":5126,
			"count":40,
			"max":[
				0.4672270119190216,
				0.13258293271064758,
				-0.4152009189128876
			],
			"min":[
				0.1248813048005104,
				-0.13258293271064758,
				-0.7898924946784973
			],
			"type":"VEC3"
		},
		{
			"bufferView":53,
			"componentType":5126,
			"count":40,
			"type":"VEC3"
		},
		{
			"bufferView":54,
			"componentType":5126,
			"count":40,
			"type":"VEC2"
		},
		{
			"bufferView":55,
			"componentType":5123,
			"count":60,
			"type":"SCALAR"
		}
	],
	"bufferViews":[
		{
			"buffer":0,
			"byteLength":192,
			"byteOffset":0,
			"target":34962
		},
		{
			"buffer":0,
			"byteLength":192,
			"byteOffset":192,
			"target":34962
		},
		{
			"buffer":0,
			"byteLength":128,
			"byteOffset":384,
			"target":34962
		},
		{
			"buffer":0,
			"byteLength":48,
			"byteOffset":512,
			"target":34963
		},
		{
			"buffer":0,
			"byteLength":192,
			"byteOffset":560,
			"target":34962
		},
		{
			"buffer":0,
			"byteLength":192,
			"byteOffset":752,
			"target":34962
		},
		{
			"buffer":0,
			"byteLength":128,
			"byteOffset":944,
			"target":34962
		},
		{
			"buffer":0,
			"byteLength":48,
			"byteOffset":1072,
			"target":34963
		},
		{
			"buffer":0,
			"byteLength":288,
			"byteOffset":1120,
			"target":34962
		},
		{
			"buffer":0,
			"byteLength":288,
			"byteOffset":1408,
			"target":34962
		},
		{
			"buffer":0,
			"byteLength":192,
			"byteOffset":1696,
			"target":34962
		},
		{
			"buffer":0,
			"byteLength":72,
			"byteOffset":1888,
			"target":34963
		},
		{
			"buffer":0,
			"byteLength":288,
			"byteOffset":1960,
			"target":34962
		},
		{
			"buffer":0,
			"byteLength":288,
			"byteOffset":2248,
			"target":34962
		},
		{
			"buffer":0,
			"byteLength":192,
			"byteOffset":2536,
			"target":34962
		},
		{
			"buffer":0,
			"byteLength":72,
			"byteOffset":2728,
			"target":34963
		},
		{
			"buffer":0,
			"byteLength":864,
			"byteOffset":2800,
			"target":34962
		},
		{
			"buffer":0,
			"byteLength":864,
			"byteOffset":3664,
			"target":34962
		},
		{
			"buffer":0,
			"byteLength":576,
			"byteOffset":4528,
			"target":34962
		},
		{
			"buffer":0,
			"byteLength":216,
			"byteOffset":5104,
			"target":34963
		},
		{
			"buffer":0,
			"byteLength":864,
			"byteOffset":5320,
			"target":34962
		},
		{
			"buffer":0,
			"byteLength":864,
			"byteOffset":6184,
			"target":34962
		},
		{
			"buffer":0,
			"byteLength":576,
			"byteOffset":7048,
			"target":34962
		},
		{
			"buffer":0,
			"byteLength":216,
			"byteOffset":7624,
			"target":34963
		},
		{
			"buffer":0,
			"byteLength":384,
			"byteOffset":7840,
			"target":34962
		},
		{
			"buffer":0,
			"byteLength":384,
			"byteOffset":8224,
			"target":34962
		},
		{
			"buffer":0,
			"byteLength":256,
			"byteOffset":8608,
			"target":34962
		},
		{
			"buffer":0,
			"byteLength":84,
			"byteOffset":8864,
			"target":34963
		},
		{
			"buffer":0,
			"byteLength":384,
			"byteOffset":8948,
			"target":34962
		},
		{
			"buffer":0,
			"byteLength":384,
			"byteOffset":9332,
			"target":34962
		},
		{
			"buffer":0,
			"byteLength":256,
			"byteOffset":9716,
			"target":34962
		},
		{
			"buffer":0,
			"byteLength":84,
			"byteOffset":9972,
			"target":34963
		},
		{
			"buffer":0,
			"byteLength":1140,
			"byteOffset":10056,
			"target":34962
		},
		{
			"buffer":0,
			"byteLength":1140,
			"byteOffset":11196,
			"target":34962
		},
		{
			"buffer":0,
			"byteLength":760,
			"byteOffset":12336,
			"target":34962
		},
		{
			"buffer":0,
			"byteLength":270,
			"byteOffset":13096,
			"target":34963
		},
		{
			"buffer":0,
			"byteLength":1152,
			"byteOffset":13368,
			"target":34962
		},
		{
			"buffer":0,
			"byteLength":1152,
			"byteOffset":14520,
			"target":34962
		},
		{
			"buffer":0,
			"byteLength":768,
			"byteOffset":15672,
			"target":34962
		},
		{
			"buffer":0,
			"byteLength":288,
			"byteOffset":16440,
			"target":34963
		},
		{
			"buffer":0,
			"byteLength":1740,
			"byteOffset":16728,
			"target":34962
		},
		{
			"buffer":0,
			"byteLength":1740,
			"byteOffset":18468,
			"target":34962
		},
		{
			"buffer":0,
			"byteLength":1160,
			"byteOffset":20208,
			"target":34962
		},
		{
			"buffer":0,
			"byteLength":456,
			"byteOffset":21368,
			"target":34963
		},
		{
			"buffer":0,
			"byteLength":1752,
			"byteOffset":21824,
			"target":34962
		},
		{
			"buffer":0,
			"byteLength":1752,
			"byteOffset":23576,
			"target":34962
		},
		{
			"buffer":0,
			"byteLength":1168,
			"byteOffset":25328,
			"target":34962
		},
		{
			"buffer":0,
			"byteLength":456,
			"byteOffset":26496,
			"target":34963
		},
		{
			"buffer":0,
			"byteLength":480,
			"byteOffset":26952,
			"target":34962
		},
		{
			"buffer":0,
			"byteLength":480,
			"byteOffset":27432,
			"target":34962
		},
		{
			"buffer":0,
			"byteLength":320,
			"byteOffset":27912,
			"target":34962
		},
		{
			"buffer":0,
			"byteLength":120,
			"byteOffset":28232,
			"target":34963
		},
		{
			"buffer":0,
			"byteLength":480,
			"byteOffset":28352,
			"target":34962
		},
		{
			"buffer":0,
			"byteLength":480,
			"byteOffset":28832,
			"target":34962
		},
		{
			"buffer":0,
			"byteLength":320,
			"byteOffset":29312,
			"target":34962
		},
		{
			"buffer":0,
			"byteLength":120,
			"byteOffset":29632,
			"target":34963
		}
	],
	"samplers":[
		{
			"magFilter":9729,
			"minFilter":9987
		}
	],
	"buffers":[
		{
			"byteLength":29752,
			"uri":"Witch.bin"
		}
	]
}
