{
	"asset":{
		"generator":"Khronos glTF Blender I/O v5.1.19",
		"version":"2.0"
	},
	"extensionsUsed":[
		"KHR_materials_specular"
	],
	"scene":0,
	"scenes":[
		{
			"name":"Scene",
			"nodes":[
				1
			]
		}
	],
	"nodes":[
		{
			"mesh":0,
			"name":"Low_Poly_Tree_001",
			"scale":[
				0.9130519032478333,
				1.237157940864563,
				0.9130519032478333
			]
		},
		{
			"children":[
				0
			],
			"name":"Low_Poly_Tree_001_Empty"
		}
	],
	"materials":[
		{
			"doubleSided":true,
			"extensions":{
				"KHR_materials_specular":{
					"specularFactor":0
				}
			},
			"name":"Low_Poly_Tree_001_Mat_01",
			"pbrMetallicRoughness":{
				"baseColorFactor":[
					0.10047733783721924,
					0.04380344599485397,
					0.004560634959489107,
					1
				],
				"metallicFactor":0,
				"roughnessFactor":0.5
			}
		},
		{
			"doubleSided":true,
			"extensions":{
				"KHR_materials_specular":{
					"specularFactor":0
				}
			},
			"name":"Low_Poly_Tree_001_Mat_02",
			"pbrMetallicRoughness":{
				"baseColorFactor":[
					0.029106028378009796,
					0.06838595122098923,
					0,
					1
				],
				"metallicFactor":0,
				"roughnessFactor":0.5
			}
		}
	],
	"meshes":[
		{
			"name":"Icosphere",
			"primitives":[
				{
					"attributes":{
						"POSITION":0,
						"NORMAL":1
					},
					"indices":2,
					"material":0
				},
				{
					"attributes":{
						"POSITION":3,
						"NORMAL":4
					},
					"indices":5,
					"material":1
				}
			]
		}
	],
	"accessors":[
		{
			"bufferView":0,
			"componentType":5126,
			"count":55,
			"max":[
				0.8478140830993652,
				3.6713366508483887,
				0.9833247065544128
			],
			"min":[
				-1.1345925331115723,
				-0.1848127841949463,
				-1.0999196767807007
			],
			"type":"VEC3"
		},
		{
			"bufferView":1,
			"componentType":5126,
			"count":55,
			"type":"VEC3"
		},
		{
			"bufferView":2,
			"componentType":5123,
			"count":75,
			"type":"SCALAR"
		},
		{
			"bufferView":3,
			"componentType":5126,
			"count":240,
			"max":[
				2.893519878387451,
				5.139917850494385,
				3.3440489768981934
			],
			"min":[
				-2.7725400924682617,
				2.505051374435425,
				-3.1115920543670654
			],
			"type":"VEC3"
		},
		{
			"bufferView":4,
			"componentType":5126,
			"count":240,
			"type":"VEC3"
		},
		{
			"bufferView":5,
			"componentType":5123,
			"count":240,
			"type":"SCALAR"
		}
	],
	"bufferViews":[
		{
			"buffer":0,
			"byteLength":660,
			"byteOffset":0,
			"target":34962
		},
		{
			"buffer":0,
			"byteLength":660,
			"byteOffset":660,
			"target":34962
		},
		{
			"buffer":0,
			"byteLength":150,
			"byteOffset":1320,
			"target":34963
		},
		{
			"buffer":0,
			"byteLength":2880,
			"byteOffset":1472,
			"target":34962
		},
		{
			"buffer":0,
			"byteLength":2880,
			"byteOffset":4352,
			"target":34962
		},
		{
			"buffer":0,
			"byteLength":480,
			"byteOffset":7232,
			"target":34963
		}
	],
	"buffers":[
		{
			"byteLength":7712,
			"uri":"Tree_001.bin"
		}
	]
}
