{
	"asset":{
		"generator":"Khronos glTF Blender I/O v5.1.19",
		"version":"2.0"
	},
	"extensionsUsed":[
		"KHR_materials_specular"
	],
	"scene":0,
	"scenes":[
		{
			"name":"Scene",
			"nodes":[
				1
			]
		}
	],
	"nodes":[
		{
			"mesh":0,
			"name":"Low_Poly_Tree_003",
			"rotation":[
				0,
				0.09497707337141037,
				0,
				0.9954795241355896
			]
		},
		{
			"children":[
				0
			],
			"name":"Low_Poly_Tree_003_Empty"
		}
	],
	"materials":[
		{
			"doubleSided":true,
			"extensions":{
				"KHR_materials_specular":{
					"specularFactor":0
				}
			},
			"name":"Low_Poly_Tree_003_Mat_01",
			"pbrMetallicRoughness":{
				"baseColorFactor":[
					0.11280560493469238,
					0.049435313791036606,
					0.009563829749822617,
					1
				],
				"metallicFactor":0,
				"roughnessFactor":0.5
			}
		},
		{
			"doubleSided":true,
			"extensions":{
				"KHR_materials_specular":{
					"specularFactor":0
				}
			},
			"name":"Low_Poly_Tree_003_Mat_02",
			"pbrMetallicRoughness":{
				"baseColorFactor":[
					0.0013456852175295353,
					0.1805400550365448,
					0.033091697841882706,
					1
				],
				"metallicFactor":0,
				"roughnessFactor":0.5
			}
		}
	],
	"meshes":[
		{
			"name":"Circle",
			"primitives":[
				{
					"attributes":{
						"POSITION":0,
						"NORMAL":1
					},
					"indices":2,
					"material":0
				},
				{
					"attributes":{
						"POSITION":3,
						"NORMAL":4
					},
					"indices":5,
					"material":1
				}
			]
		}
	],
	"accessors":[
		{
			"bufferView":0,
			"componentType":5126,
			"count":237,
			"max":[
				2.5667176246643066,
				8.679323196411133,
				1.2590149641036987
			],
			"min":[
				-2.7815098762512207,
				-0.33497145771980286,
				-1.475242257118225
			],
			"type":"VEC3"
		},
		{
			"bufferView":1,
			"componentType":5126,
			"count":237,
			"type":"VEC3"
		},
		{
			"bufferView":2,
			"componentType":5123,
			"count":237,
			"type":"SCALAR"
		},
		{
			"bufferView":3,
			"componentType":5126,
			"count":342,
			"max":[
				3.7855043411254883,
				9.833412170410156,
				1.7900164127349854
			],
			"min":[
				-3.933800458908081,
				4.640933036804199,
				-2.0675947666168213
			],
			"type":"VEC3"
		},
		{
			"bufferView":4,
			"componentType":5126,
			"count":342,
			"type":"VEC3"
		},
		{
			"bufferView":5,
			"componentType":5123,
			"count":342,
			"type":"SCALAR"
		}
	],
	"bufferViews":[
		{
			"buffer":0,
			"byteLength":2844,
			"byteOffset":0,
			"target":34962
		},
		{
			"buffer":0,
			"byteLength":2844,
			"byteOffset":2844,
			"target":34962
		},
		{
			"buffer":0,
			"byteLength":474,
			"byteOffset":5688,
			"target":34963
		},
		{
			"buffer":0,
			"byteLength":4104,
			"byteOffset":6164,
			"target":34962
		},
		{
			"buffer":0,
			"byteLength":4104,
			"byteOffset":10268,
			"target":34962
		},
		{
			"buffer":0,
			"byteLength":684,
			"byteOffset":14372,
			"target":34963
		}
	],
	"buffers":[
		{
			"byteLength":15056,
			"uri":"Tree_003.bin"
		}
	]
}
