{
	"asset":{
		"generator":"Khronos glTF Blender I/O v5.1.19",
		"version":"2.0"
	},
	"extensionsUsed":[
		"KHR_materials_specular"
	],
	"scene":0,
	"scenes":[
		{
			"name":"Scene",
			"nodes":[
				1
			]
		}
	],
	"nodes":[
		{
			"mesh":0,
			"name":"Low_Poly_Tree_002",
			"scale":[
				0.9130519032478333,
				1.237157940864563,
				0.9130519032478333
			]
		},
		{
			"children":[
				0
			],
			"name":"Low_Poly_Tree_002_Empty"
		}
	],
	"materials":[
		{
			"doubleSided":true,
			"extensions":{
				"KHR_materials_specular":{
					"specularFactor":0
				}
			},
			"name":"Low_Poly_Tree_002_Mat_01",
			"pbrMetallicRoughness":{
				"baseColorFactor":[
					0.09462425857782364,
					0.021358883008360863,
					0.005381790921092033,
					1
				],
				"metallicFactor":0,
				"roughnessFactor":0.5
			}
		},
		{
			"doubleSided":true,
			"extensions":{
				"KHR_materials_specular":{
					"specularFactor":0
				}
			},
			"name":"Low_Poly_Tree_002_Mat_02",
			"pbrMetallicRoughness":{
				"baseColorFactor":[
					0.029078856110572815,
					0.2529497444629669,
					0.011020013131201267,
					1
				],
				"metallicFactor":0,
				"roughnessFactor":0.5
			}
		}
	],
	"meshes":[
		{
			"name":"Icosphere.001",
			"primitives":[
				{
					"attributes":{
						"POSITION":0,
						"NORMAL":1
					},
					"indices":2,
					"material":0
				},
				{
					"attributes":{
						"POSITION":3,
						"NORMAL":4
					},
					"indices":5,
					"material":1
				}
			]
		}
	],
	"accessors":[
		{
			"bufferView":0,
			"componentType":5126,
			"count":95,
			"max":[
				1.4372076988220215,
				8.371572494506836,
				1.2352583408355713
			],
			"min":[
				-1.2123783826828003,
				-0.22049987316131592,
				-1.4238003492355347
			],
			"type":"VEC3"
		},
		{
			"bufferView":1,
			"componentType":5126,
			"count":95,
			"type":"VEC3"
		},
		{
			"bufferView":2,
			"componentType":5123,
			"count":135,
			"type":"SCALAR"
		},
		{
			"bufferView":3,
			"componentType":5126,
			"count":360,
			"max":[
				2.746706247329712,
				8.642213821411133,
				2.7116892337799072
			],
			"min":[
				-2.6081161499023438,
				2.298896074295044,
				-2.8432977199554443
			],
			"type":"VEC3"
		},
		{
			"bufferView":4,
			"componentType":5126,
			"count":360,
			"type":"VEC3"
		},
		{
			"bufferView":5,
			"componentType":5123,
			"count":360,
			"type":"SCALAR"
		}
	],
	"bufferViews":[
		{
			"buffer":0,
			"byteLength":1140,
			"byteOffset":0,
			"target":34962
		},
		{
			"buffer":0,
			"byteLength":1140,
			"byteOffset":1140,
			"target":34962
		},
		{
			"buffer":0,
			"byteLength":270,
			"byteOffset":2280,
			"target":34963
		},
		{
			"buffer":0,
			"byteLength":4320,
			"byteOffset":2552,
			"target":34962
		},
		{
			"buffer":0,
			"byteLength":4320,
			"byteOffset":6872,
			"target":34962
		},
		{
			"buffer":0,
			"byteLength":720,
			"byteOffset":11192,
			"target":34963
		}
	],
	"buffers":[
		{
			"byteLength":11912,
			"uri":"Tree_002.bin"
		}
	]
}
