{
	"asset":{
		"generator":"Khronos glTF Blender I/O v5.1.19",
		"version":"2.0"
	},
	"scene":0,
	"scenes":[
		{
			"name":"Scene",
			"nodes":[
				1
			]
		}
	],
	"nodes":[
		{
			"mesh":0,
			"name":"Portal_StonePlatform-Inscryption-Celestial"
		},
		{
			"children":[
				0
			],
			"mesh":1,
			"name":"Portal_StonePlatform-Celestial"
		}
	],
	"materials":[
		{
			"alphaMode":"BLEND",
			"doubleSided":true,
			"emissiveFactor":[
				0.4000000059604645,
				0.4000000059604645,
				0.4000000059604645
			],
			"name":"M_Portal_StonePlatform_Inscryption-Celestial.001",
			"pbrMetallicRoughness":{
				"baseColorTexture":{
					"index":0
				},
				"metallicFactor":0,
				"roughnessFactor":0.5
			}
		},
		{
			"alphaMode":"BLEND",
			"doubleSided":true,
			"emissiveFactor":[
				0.4000000059604645,
				0.4000000059604645,
				0.4000000059604645
			],
			"emissiveTexture":{
				"index":1
			},
			"name":"M_Portal_StonePlatform-Celestial.001",
			"pbrMetallicRoughness":{
				"baseColorTexture":{
					"index":2
				},
				"metallicFactor":0,
				"roughnessFactor":0.5
			}
		}
	],
	"meshes":[
		{
			"name":"Circle.006",
			"primitives":[
				{
					"attributes":{
						"POSITION":0,
						"NORMAL":1,
						"TEXCOORD_0":2
					},
					"indices":3,
					"material":0
				}
			]
		},
		{
			"name":"Circle.007",
			"primitives":[
				{
					"attributes":{
						"POSITION":4,
						"NORMAL":5,
						"TEXCOORD_0":6
					},
					"indices":7,
					"material":1
				}
			]
		}
	],
	"textures":[
		{
			"sampler":0,
			"source":0
		},
		{
			"sampler":0,
			"source":1
		},
		{
			"sampler":0,
			"source":1
		}
	],
	"images":[
		{
			"mimeType":"image/png",
			"name":"T_StonePlatform_Inscryption_Celestial",
			"uri":"T_StonePlatform_Inscryption_Celestial.png"
		},
		{
			"mimeType":"image/png",
			"name":"T_StonePlatform_Celestial",
			"uri":"T_StonePlatform_Celestial.png"
		}
	],
	"accessors":[
		{
			"bufferView":0,
			"componentType":5126,
			"count":111,
			"max":[
				8.025619506835938,
				0.7659737467765808,
				8.02563762664795
			],
			"min":[
				-8.025653839111328,
				0.7659737467765808,
				-8.02563762664795
			],
			"type":"VEC3"
		},
		{
			"bufferView":1,
			"componentType":5126,
			"count":111,
			"type":"VEC3"
		},
		{
			"bufferView":2,
			"componentType":5126,
			"count":111,
			"type":"VEC2"
		},
		{
			"bufferView":3,
			"componentType":5123,
			"count":264,
			"type":"SCALAR"
		},
		{
			"bufferView":4,
			"componentType":5126,
			"count":246,
			"max":[
				18.92039680480957,
				2.906582832336426,
				18.920413970947266
			],
			"min":[
				-18.920429229736328,
				0.013918519020080566,
				-18.920413970947266
			],
			"type":"VEC3"
		},
		{
			"bufferView":5,
			"componentType":5126,
			"count":246,
			"type":"VEC3"
		},
		{
			"bufferView":6,
			"componentType":5126,
			"count":246,
			"type":"VEC2"
		},
		{
			"bufferView":7,
			"componentType":5123,
			"count":960,
			"type":"SCALAR"
		}
	],
	"bufferViews":[
		{
			"buffer":0,
			"byteLength":1332,
			"byteOffset":0,
			"target":34962
		},
		{
			"buffer":0,
			"byteLength":1332,
			"byteOffset":1332,
			"target":34962
		},
		{
			"buffer":0,
			"byteLength":888,
			"byteOffset":2664,
			"target":34962
		},
		{
			"buffer":0,
			"byteLength":528,
			"byteOffset":3552,
			"target":34963
		},
		{
			"buffer":0,
			"byteLength":2952,
			"byteOffset":4080,
			"target":34962
		},
		{
			"buffer":0,
			"byteLength":2952,
			"byteOffset":7032,
			"target":34962
		},
		{
			"buffer":0,
			"byteLength":1968,
			"byteOffset":9984,
			"target":34962
		},
		{
			"buffer":0,
			"byteLength":1920,
			"byteOffset":11952,
			"target":34963
		}
	],
	"samplers":[
		{
			"magFilter":9729,
			"minFilter":9987
		}
	],
	"buffers":[
		{
			"byteLength":13872,
			"uri":"WarpStone.bin"
		}
	]
}
