{
	"asset":{
		"generator":"Khronos glTF Blender I/O v5.1.19",
		"version":"2.0"
	},
	"scene":0,
	"scenes":[
		{
			"name":"Scene",
			"nodes":[
				12
			]
		}
	],
	"nodes":[
		{
			"name":"wing5_L",
			"rotation":[
				-2.8088860126729287e-09,
				1.9328348344060942e-07,
				0.029951952397823334,
				0.9995513558387756
			],
			"scale":[
				0.9999999403953552,
				0.9999999403953552,
				1
			],
			"translation":[
				2.9802306400483758e-08,
				0.6064888834953308,
				-2.1316282072803006e-14
			]
		},
		{
			"children":[
				0
			],
			"name":"wing4_L",
			"rotation":[
				9.481755380846835e-10,
				-8.23452523945889e-08,
				0.05538833513855934,
				0.9984648823738098
			],
			"scale":[
				0.9999998807907104,
				1,
				1
			],
			"translation":[
				2.980236146754578e-08,
				0.5183406472206116,
				-4.263256414560601e-14
			]
		},
		{
			"children":[
				1
			],
			"name":"wing3_L",
			"rotation":[
				2.171484503321608e-08,
				1.904459736579156e-07,
				0.16978183388710022,
				0.9854816794395447
			],
			"scale":[
				0.9999999403953552,
				0.9999998807907104,
				1
			],
			"translation":[
				-3.7253777840362545e-09,
				0.501387357711792,
				3.552713678800501e-14
			]
		},
		{
			"children":[
				2
			],
			"name":"wing2_L",
			"rotation":[
				1.6491556564801613e-08,
				-1.4876826526233344e-07,
				0.09605378657579422,
				0.9953761696815491
			],
			"scale":[
				1,
				1.0000001192092896,
				1
			],
			"translation":[
				-1.8626463926807446e-08,
				0.5183405876159668,
				2.7755575615628914e-15
			]
		},
		{
			"children":[
				3
			],
			"name":"wing1_L",
			"rotation":[
				-8.835636222670473e-09,
				-6.744715008721869e-09,
				-0.7948760986328125,
				0.6067718267440796
			],
			"scale":[
				0.9999999403953552,
				0.9999999403953552,
				1
			],
			"translation":[
				0.5,
				0.767891526222229,
				0
			]
		},
		{
			"name":"wing5_R",
			"rotation":[
				-2.80888157178083e-09,
				-1.9328349765146413e-07,
				-0.029951952397823334,
				0.9995513558387756
			],
			"scale":[
				0.9999999403953552,
				0.9999999403953552,
				1
			],
			"translation":[
				-2.980239699468257e-08,
				0.6064888834953308,
				-2.842170943040401e-14
			]
		},
		{
			"children":[
				5
			],
			"name":"wing4_R",
			"rotation":[
				9.481706531033751e-10,
				8.23452523945889e-08,
				-0.05538833513855934,
				0.9984648823738098
			],
			"scale":[
				0.9999998807907104,
				1,
				1
			],
			"translation":[
				-2.9802315282267955e-08,
				0.5183406472206116,
				-1.7763568394002505e-14
			]
		},
		{
			"children":[
				6
			],
			"name":"wing3_R",
			"rotation":[
				2.1714850362286597e-08,
				-1.9044598786877032e-07,
				-0.16978181898593903,
				0.9854816794395447
			],
			"scale":[
				0.9999999403953552,
				0.9999998807907104,
				1
			],
			"translation":[
				3.7252094742257214e-09,
				0.501387357711792,
				-2.0872192862952943e-14
			]
		},
		{
			"children":[
				7
			],
			"name":"wing2_R",
			"rotation":[
				1.649156011751529e-08,
				1.4876826526233344e-07,
				-0.09605378657579422,
				0.9953761696815491
			],
			"scale":[
				1,
				1.0000001192092896,
				1
			],
			"translation":[
				1.862645504502325e-08,
				0.5183405876159668,
				3.4416913763379853e-15
			]
		},
		{
			"children":[
				8
			],
			"name":"wing1_R",
			"rotation":[
				-8.835634446313634e-09,
				6.744715008721869e-09,
				0.7948760986328125,
				0.6067718267440796
			],
			"scale":[
				0.9999999403953552,
				0.9999999403953552,
				1
			],
			"translation":[
				-0.5,
				0.767891526222229,
				0
			]
		},
		{
			"children":[
				4,
				9
			],
			"name":"root",
			"translation":[
				0,
				-0.5801175236701965,
				0
			]
		},
		{
			"mesh":0,
			"name":"nose",
			"skin":0
		},
		{
			"children":[
				11,
				10
			],
			"name":"Bat"
		}
	],
	"animations":[
		{
			"channels":[
				{
					"sampler":0,
					"target":{
						"node":10,
						"path":"translation"
					}
				},
				{
					"sampler":1,
					"target":{
						"node":10,
						"path":"rotation"
					}
				},
				{
					"sampler":2,
					"target":{
						"node":10,
						"path":"scale"
					}
				},
				{
					"sampler":3,
					"target":{
						"node":4,
						"path":"translation"
					}
				},
				{
					"sampler":4,
					"target":{
						"node":4,
						"path":"rotation"
					}
				},
				{
					"sampler":5,
					"target":{
						"node":4,
						"path":"scale"
					}
				},
				{
					"sampler":6,
					"target":{
						"node":3,
						"path":"translation"
					}
				},
				{
					"sampler":7,
					"target":{
						"node":3,
						"path":"rotation"
					}
				},
				{
					"sampler":8,
					"target":{
						"node":3,
						"path":"scale"
					}
				},
				{
					"sampler":9,
					"target":{
						"node":2,
						"path":"translation"
					}
				},
				{
					"sampler":10,
					"target":{
						"node":2,
						"path":"rotation"
					}
				},
				{
					"sampler":11,
					"target":{
						"node":2,
						"path":"scale"
					}
				},
				{
					"sampler":12,
					"target":{
						"node":1,
						"path":"translation"
					}
				},
				{
					"sampler":13,
					"target":{
						"node":1,
						"path":"rotation"
					}
				},
				{
					"sampler":14,
					"target":{
						"node":1,
						"path":"scale"
					}
				},
				{
					"sampler":15,
					"target":{
						"node":0,
						"path":"translation"
					}
				},
				{
					"sampler":16,
					"target":{
						"node":0,
						"path":"rotation"
					}
				},
				{
					"sampler":17,
					"target":{
						"node":0,
						"path":"scale"
					}
				},
				{
					"sampler":18,
					"target":{
						"node":9,
						"path":"translation"
					}
				},
				{
					"sampler":19,
					"target":{
						"node":9,
						"path":"rotation"
					}
				},
				{
					"sampler":20,
					"target":{
						"node":9,
						"path":"scale"
					}
				},
				{
					"sampler":21,
					"target":{
						"node":8,
						"path":"translation"
					}
				},
				{
					"sampler":22,
					"target":{
						"node":8,
						"path":"rotation"
					}
				},
				{
					"sampler":23,
					"target":{
						"node":8,
						"path":"scale"
					}
				},
				{
					"sampler":24,
					"target":{
						"node":7,
						"path":"translation"
					}
				},
				{
					"sampler":25,
					"target":{
						"node":7,
						"path":"rotation"
					}
				},
				{
					"sampler":26,
					"target":{
						"node":7,
						"path":"scale"
					}
				},
				{
					"sampler":27,
					"target":{
						"node":6,
						"path":"translation"
					}
				},
				{
					"sampler":28,
					"target":{
						"node":6,
						"path":"rotation"
					}
				},
				{
					"sampler":29,
					"target":{
						"node":6,
						"path":"scale"
					}
				},
				{
					"sampler":30,
					"target":{
						"node":5,
						"path":"translation"
					}
				},
				{
					"sampler":31,
					"target":{
						"node":5,
						"path":"rotation"
					}
				},
				{
					"sampler":32,
					"target":{
						"node":5,
						"path":"scale"
					}
				}
			],
			"name":"flap_loop",
			"samplers":[
				{
					"input":19,
					"interpolation":"STEP",
					"output":20
				},
				{
					"input":19,
					"interpolation":"STEP",
					"output":21
				},
				{
					"input":19,
					"interpolation":"STEP",
					"output":22
				},
				{
					"input":19,
					"interpolation":"STEP",
					"output":23
				},
				{
					"input":24,
					"interpolation":"LINEAR",
					"output":25
				},
				{
					"input":19,
					"interpolation":"STEP",
					"output":26
				},
				{
					"input":19,
					"interpolation":"STEP",
					"output":27
				},
				{
					"input":24,
					"interpolation":"LINEAR",
					"output":28
				},
				{
					"input":19,
					"interpolation":"STEP",
					"output":29
				},
				{
					"input":19,
					"interpolation":"STEP",
					"output":30
				},
				{
					"input":24,
					"interpolation":"LINEAR",
					"output":31
				},
				{
					"input":19,
					"interpolation":"STEP",
					"output":32
				},
				{
					"input":19,
					"interpolation":"STEP",
					"output":33
				},
				{
					"input":24,
					"interpolation":"LINEAR",
					"output":34
				},
				{
					"input":19,
					"interpolation":"STEP",
					"output":35
				},
				{
					"input":19,
					"interpolation":"STEP",
					"output":36
				},
				{
					"input":19,
					"interpolation":"STEP",
					"output":37
				},
				{
					"input":19,
					"interpolation":"STEP",
					"output":38
				},
				{
					"input":19,
					"interpolation":"STEP",
					"output":39
				},
				{
					"input":24,
					"interpolation":"LINEAR",
					"output":40
				},
				{
					"input":19,
					"interpolation":"STEP",
					"output":41
				},
				{
					"input":19,
					"interpolation":"STEP",
					"output":42
				},
				{
					"input":24,
					"interpolation":"LINEAR",
					"output":43
				},
				{
					"input":19,
					"interpolation":"STEP",
					"output":22
				},
				{
					"input":19,
					"interpolation":"STEP",
					"output":44
				},
				{
					"input":24,
					"interpolation":"LINEAR",
					"output":45
				},
				{
					"input":19,
					"interpolation":"STEP",
					"output":46
				},
				{
					"input":19,
					"interpolation":"STEP",
					"output":47
				},
				{
					"input":24,
					"interpolation":"LINEAR",
					"output":48
				},
				{
					"input":19,
					"interpolation":"STEP",
					"output":49
				},
				{
					"input":19,
					"interpolation":"STEP",
					"output":50
				},
				{
					"input":19,
					"interpolation":"STEP",
					"output":51
				},
				{
					"input":19,
					"interpolation":"STEP",
					"output":32
				}
			]
		}
	],
	"materials":[
		{
			"doubleSided":true,
			"name":"Material.001",
			"pbrMetallicRoughness":{
				"baseColorFactor":[
					0.04817148298025131,
					0.03954625502228737,
					0.08437623828649521,
					1
				],
				"metallicFactor":0
			}
		},
		{
			"doubleSided":true,
			"name":"Material.002",
			"pbrMetallicRoughness":{
				"baseColorFactor":[
					0.8008760809898376,
					0.03888991102576256,
					0.2760089635848999,
					1
				],
				"metallicFactor":0,
				"roughnessFactor":0
			}
		},
		{
			"alphaMode":"BLEND",
			"doubleSided":true,
			"name":"eye",
			"pbrMetallicRoughness":{
				"baseColorTexture":{
					"index":0
				},
				"metallicFactor":0
			}
		}
	],
	"meshes":[
		{
			"name":"Cube.005",
			"primitives":[
				{
					"attributes":{
						"POSITION":0,
						"NORMAL":1,
						"TEXCOORD_0":2,
						"JOINTS_0":3,
						"WEIGHTS_0":4
					},
					"indices":5,
					"material":0
				},
				{
					"attributes":{
						"POSITION":6,
						"NORMAL":7,
						"TEXCOORD_0":8,
						"JOINTS_0":9,
						"WEIGHTS_0":10
					},
					"indices":11,
					"material":1
				},
				{
					"attributes":{
						"POSITION":12,
						"NORMAL":13,
						"TEXCOORD_0":14,
						"JOINTS_0":15,
						"WEIGHTS_0":16
					},
					"indices":17,
					"material":2
				}
			]
		}
	],
	"textures":[
		{
			"sampler":0,
			"source":0
		}
	],
	"images":[
		{
			"mimeType":"image/png",
			"name":"bat_eye",
			"uri":"bat_eye.png"
		}
	],
	"skins":[
		{
			"inverseBindMatrices":18,
			"joints":[
				10,
				4,
				3,
				2,
				1,
				0,
				9,
				8,
				7,
				6,
				5
			],
			"name":"Bat"
		}
	],
	"accessors":[
		{
			"bufferView":0,
			"componentType":5126,
			"count":121,
			"max":[
				2.91850209236145,
				1.664902925491333,
				0.742768406867981
			],
			"min":[
				-2.91850209236145,
				-0.69504314661026,
				-1.0201127529144287
			],
			"type":"VEC3"
		},
		{
			"bufferView":1,
			"componentType":5126,
			"count":121,
			"type":"VEC3"
		},
		{
			"bufferView":2,
			"componentType":5126,
			"count":121,
			"type":"VEC2"
		},
		{
			"bufferView":3,
			"componentType":5121,
			"count":121,
			"type":"VEC4"
		},
		{
			"bufferView":4,
			"componentType":5126,
			"count":121,
			"type":"VEC4"
		},
		{
			"bufferView":5,
			"componentType":5123,
			"count":450,
			"type":"SCALAR"
		},
		{
			"bufferView":6,
			"componentType":5126,
			"count":36,
			"max":[
				0.41172778606414795,
				1.0108380317687988,
				0.931266188621521
			],
			"min":[
				-0.4117277264595032,
				-0.1750640571117401,
				0.09496474266052246
			],
			"type":"VEC3"
		},
		{
			"bufferView":7,
			"componentType":5126,
			"count":36,
			"type":"VEC3"
		},
		{
			"bufferView":8,
			"componentType":5126,
			"count":36,
			"type":"VEC2"
		},
		{
			"bufferView":9,
			"componentType":5121,
			"count":36,
			"type":"VEC4"
		},
		{
			"bufferView":10,
			"componentType":5126,
			"count":36,
			"type":"VEC4"
		},
		{
			"bufferView":11,
			"componentType":5123,
			"count":150,
			"type":"SCALAR"
		},
		{
			"bufferView":12,
			"componentType":5126,
			"count":8,
			"max":[
				0.4254131317138672,
				0.4574017822742462,
				0.7304857969284058
			],
			"min":[
				-0.42541295289993286,
				0.06243675947189331,
				0.5139853954315186
			],
			"type":"VEC3"
		},
		{
			"bufferView":13,
			"componentType":5126,
			"count":8,
			"type":"VEC3"
		},
		{
			"bufferView":14,
			"componentType":5126,
			"count":8,
			"type":"VEC2"
		},
		{
			"bufferView":15,
			"componentType":5121,
			"count":8,
			"type":"VEC4"
		},
		{
			"bufferView":16,
			"componentType":5126,
			"count":8,
			"type":"VEC4"
		},
		{
			"bufferView":17,
			"componentType":5123,
			"count":12,
			"type":"SCALAR"
		},
		{
			"bufferView":18,
			"componentType":5126,
			"count":11,
			"type":"MAT4"
		},
		{
			"bufferView":19,
			"componentType":5126,
			"count":2,
			"max":[
				0.4166666666666667
			],
			"min":[
				0
			],
			"type":"SCALAR"
		},
		{
			"bufferView":20,
			"componentType":5126,
			"count":2,
			"type":"VEC3"
		},
		{
			"bufferView":21,
			"componentType":5126,
			"count":2,
			"type":"VEC4"
		},
		{
			"bufferView":22,
			"componentType":5126,
			"count":2,
			"type":"VEC3"
		},
		{
			"bufferView":23,
			"componentType":5126,
			"count":2,
			"type":"VEC3"
		},
		{
			"bufferView":24,
			"componentType":5126,
			"count":11,
			"max":[
				0.4166666666666667
			],
			"min":[
				0
			],
			"type":"SCALAR"
		},
		{
			"bufferView":25,
			"componentType":5126,
			"count":11,
			"type":"VEC4"
		},
		{
			"bufferView":26,
			"componentType":5126,
			"count":2,
			"type":"VEC3"
		},
		{
			"bufferView":27,
			"componentType":5126,
			"count":2,
			"type":"VEC3"
		},
		{
			"bufferView":28,
			"componentType":5126,
			"count":11,
			"type":"VEC4"
		},
		{
			"bufferView":29,
			"componentType":5126,
			"count":2,
			"type":"VEC3"
		},
		{
			"bufferView":30,
			"componentType":5126,
			"count":2,
			"type":"VEC3"
		},
		{
			"bufferView":31,
			"componentType":5126,
			"count":11,
			"type":"VEC4"
		},
		{
			"bufferView":32,
			"componentType":5126,
			"count":2,
			"type":"VEC3"
		},
		{
			"bufferView":33,
			"componentType":5126,
			"count":2,
			"type":"VEC3"
		},
		{
			"bufferView":34,
			"componentType":5126,
			"count":11,
			"type":"VEC4"
		},
		{
			"bufferView":35,
			"componentType":5126,
			"count":2,
			"type":"VEC3"
		},
		{
			"bufferView":36,
			"componentType":5126,
			"count":2,
			"type":"VEC3"
		},
		{
			"bufferView":37,
			"componentType":5126,
			"count":2,
			"type":"VEC4"
		},
		{
			"bufferView":38,
			"componentType":5126,
			"count":2,
			"type":"VEC3"
		},
		{
			"bufferView":39,
			"componentType":5126,
			"count":2,
			"type":"VEC3"
		},
		{
			"bufferView":40,
			"componentType":5126,
			"count":11,
			"type":"VEC4"
		},
		{
			"bufferView":41,
			"componentType":5126,
			"count":2,
			"type":"VEC3"
		},
		{
			"bufferView":42,
			"componentType":5126,
			"count":2,
			"type":"VEC3"
		},
		{
			"bufferView":43,
			"componentType":5126,
			"count":11,
			"type":"VEC4"
		},
		{
			"bufferView":44,
			"componentType":5126,
			"count":2,
			"type":"VEC3"
		},
		{
			"bufferView":45,
			"componentType":5126,
			"count":11,
			"type":"VEC4"
		},
		{
			"bufferView":46,
			"componentType":5126,
			"count":2,
			"type":"VEC3"
		},
		{
			"bufferView":47,
			"componentType":5126,
			"count":2,
			"type":"VEC3"
		},
		{
			"bufferView":48,
			"componentType":5126,
			"count":11,
			"type":"VEC4"
		},
		{
			"bufferView":49,
			"componentType":5126,
			"count":2,
			"type":"VEC3"
		},
		{
			"bufferView":50,
			"componentType":5126,
			"count":2,
			"type":"VEC3"
		},
		{
			"bufferView":51,
			"componentType":5126,
			"count":2,
			"type":"VEC4"
		}
	],
	"bufferViews":[
		{
			"buffer":0,
			"byteLength":1452,
			"byteOffset":0,
			"target":34962
		},
		{
			"buffer":0,
			"byteLength":1452,
			"byteOffset":1452,
			"target":34962
		},
		{
			"buffer":0,
			"byteLength":968,
			"byteOffset":2904,
			"target":34962
		},
		{
			"buffer":0,
			"byteLength":484,
			"byteOffset":3872,
			"target":34962
		},
		{
			"buffer":0,
			"byteLength":1936,
			"byteOffset":4356,
			"target":34962
		},
		{
			"buffer":0,
			"byteLength":900,
			"byteOffset":6292,
			"target":34963
		},
		{
			"buffer":0,
			"byteLength":432,
			"byteOffset":7192,
			"target":34962
		},
		{
			"buffer":0,
			"byteLength":432,
			"byteOffset":7624,
			"target":34962
		},
		{
			"buffer":0,
			"byteLength":288,
			"byteOffset":8056,
			"target":34962
		},
		{
			"buffer":0,
			"byteLength":144,
			"byteOffset":8344,
			"target":34962
		},
		{
			"buffer":0,
			"byteLength":576,
			"byteOffset":8488,
			"target":34962
		},
		{
			"buffer":0,
			"byteLength":300,
			"byteOffset":9064,
			"target":34963
		},
		{
			"buffer":0,
			"byteLength":96,
			"byteOffset":9364,
			"target":34962
		},
		{
			"buffer":0,
			"byteLength":96,
			"byteOffset":9460,
			"target":34962
		},
		{
			"buffer":0,
			"byteLength":64,
			"byteOffset":9556,
			"target":34962
		},
		{
			"buffer":0,
			"byteLength":32,
			"byteOffset":9620,
			"target":34962
		},
		{
			"buffer":0,
			"byteLength":128,
			"byteOffset":9652,
			"target":34962
		},
		{
			"buffer":0,
			"byteLength":24,
			"byteOffset":9780,
			"target":34963
		},
		{
			"buffer":0,
			"byteLength":704,
			"byteOffset":9804
		},
		{
			"buffer":0,
			"byteLength":8,
			"byteOffset":10508
		},
		{
			"buffer":0,
			"byteLength":24,
			"byteOffset":10516
		},
		{
			"buffer":0,
			"byteLength":32,
			"byteOffset":10540
		},
		{
			"buffer":0,
			"byteLength":24,
			"byteOffset":10572
		},
		{
			"buffer":0,
			"byteLength":24,
			"byteOffset":10596
		},
		{
			"buffer":0,
			"byteLength":44,
			"byteOffset":10620
		},
		{
			"buffer":0,
			"byteLength":176,
			"byteOffset":10664
		},
		{
			"buffer":0,
			"byteLength":24,
			"byteOffset":10840
		},
		{
			"buffer":0,
			"byteLength":24,
			"byteOffset":10864
		},
		{
			"buffer":0,
			"byteLength":176,
			"byteOffset":10888
		},
		{
			"buffer":0,
			"byteLength":24,
			"byteOffset":11064
		},
		{
			"buffer":0,
			"byteLength":24,
			"byteOffset":11088
		},
		{
			"buffer":0,
			"byteLength":176,
			"byteOffset":11112
		},
		{
			"buffer":0,
			"byteLength":24,
			"byteOffset":11288
		},
		{
			"buffer":0,
			"byteLength":24,
			"byteOffset":11312
		},
		{
			"buffer":0,
			"byteLength":176,
			"byteOffset":11336
		},
		{
			"buffer":0,
			"byteLength":24,
			"byteOffset":11512
		},
		{
			"buffer":0,
			"byteLength":24,
			"byteOffset":11536
		},
		{
			"buffer":0,
			"byteLength":32,
			"byteOffset":11560
		},
		{
			"buffer":0,
			"byteLength":24,
			"byteOffset":11592
		},
		{
			"buffer":0,
			"byteLength":24,
			"byteOffset":11616
		},
		{
			"buffer":0,
			"byteLength":176,
			"byteOffset":11640
		},
		{
			"buffer":0,
			"byteLength":24,
			"byteOffset":11816
		},
		{
			"buffer":0,
			"byteLength":24,
			"byteOffset":11840
		},
		{
			"buffer":0,
			"byteLength":176,
			"byteOffset":11864
		},
		{
			"buffer":0,
			"byteLength":24,
			"byteOffset":12040
		},
		{
			"buffer":0,
			"byteLength":176,
			"byteOffset":12064
		},
		{
			"buffer":0,
			"byteLength":24,
			"byteOffset":12240
		},
		{
			"buffer":0,
			"byteLength":24,
			"byteOffset":12264
		},
		{
			"buffer":0,
			"byteLength":176,
			"byteOffset":12288
		},
		{
			"buffer":0,
			"byteLength":24,
			"byteOffset":12464
		},
		{
			"buffer":0,
			"byteLength":24,
			"byteOffset":12488
		},
		{
			"buffer":0,
			"byteLength":32,
			"byteOffset":12512
		}
	],
	"samplers":[
		{
			"magFilter":9728,
			"minFilter":9984
		}
	],
	"buffers":[
		{
			"byteLength":12544,
			"uri":"Bat.bin"
		}
	]
}
